<svg version="1.1" id="Layer_1" xmlns="http://www.w3.org/2000/svg" xmlns:xlink="http://www.w3.org/1999/xlink" x="0px" y="0px"
	 width="100%" viewBox="0 0 200 67" enable-background="new 0 0 200 67" xml:space="preserve">
<path fill="#000000" opacity="1.000000" stroke="none" 
	d="
M201.000000,40.000000 
	C201.000000,49.318077 201.000000,58.636154 201.000000,68.000000 
	C134.623978,68.000000 68.247932,68.000145 1.871899,67.995277 
	C1.580741,67.995255 1.289588,67.923660 0.999216,67.879517 
	C1.000000,54.894794 1.000000,41.916054 1.360749,28.385704 
	C4.565989,31.807175 7.008469,36.158154 10.325593,39.686954 
	C23.632143,53.842636 42.561718,57.511574 61.163658,50.104824 
	C64.888992,48.621502 64.794281,46.605679 62.567482,44.125706 
	C60.125496,41.406086 56.978699,39.212803 54.985126,36.225521 
	C52.768257,32.903648 50.579163,32.640030 47.081032,33.759029 
	C43.518234,34.898724 39.430698,36.365150 36.022392,35.623356 
	C28.210102,33.923065 20.523024,31.338060 13.078804,28.374516 
	C8.758616,26.654650 5.007305,23.505806 1.000000,21.000000 
	C1.000000,14.344880 1.000000,7.689761 1.000000,1.059041 
	C67.666695,1.059041 134.333374,1.059041 201.000000,1.059041 
	C201.000000,11.766283 201.000000,22.414482 200.754272,33.867001 
	C195.724792,29.456905 191.807587,22.803947 185.992752,19.301228 
	C169.390991,9.300712 152.224396,10.216402 135.902115,20.662727 
	C129.294128,24.891869 123.065819,29.759745 116.926262,34.664341 
	C108.337029,41.525879 93.247421,40.303841 85.031853,31.769810 
	C94.175911,25.745865 103.416107,24.263216 113.438141,28.823647 
	C115.025925,29.546154 117.790916,28.680267 119.572693,27.727701 
	C121.854675,26.507715 123.712296,24.479485 125.716507,22.757332 
	C130.175613,18.925776 130.026306,17.075024 124.888626,14.451613 
	C115.141914,9.474730 105.068489,7.050048 93.910484,8.822533 
	C84.850929,10.261671 76.918617,13.613560 69.449036,19.259449 
	C65.445145,22.474497 61.594456,25.377554 58.088684,28.650110 
	C57.434250,29.261007 57.615131,31.828123 58.351048,32.678925 
	C61.174656,35.943333 64.326355,38.933922 67.454956,41.922710 
	C77.434410,51.456188 89.188675,56.948940 103.141266,56.972321 
	C118.672913,56.998348 131.772903,51.469776 143.124863,40.597664 
	C154.040039,30.143864 167.171021,25.522963 182.161758,31.147196 
	C188.636871,33.576534 194.732162,37.018196 201.000000,40.000000 
M158.775360,35.037300 
	C153.498871,36.132690 149.558411,38.639080 149.026291,44.551208 
	C148.522369,50.149998 150.623993,54.035252 155.508881,56.143070 
	C161.062851,58.539600 165.669724,56.468079 169.618240,52.522758 
	C176.514709,58.302216 183.302429,58.526196 188.224747,53.271488 
	C192.066971,49.169804 191.968231,42.659657 188.000839,38.507488 
	C183.214294,33.498020 177.015900,33.881195 170.855484,38.976273 
	C166.768814,37.538013 163.181900,36.275635 158.775360,35.037300 
M34.720779,8.041368 
	C33.945293,8.299088 33.181084,8.599536 32.392517,8.807713 
	C26.544130,10.351646 24.858686,12.921487 25.001621,20.121861 
	C25.100554,25.105583 28.093859,29.086250 32.372337,29.923853 
	C38.376202,31.099236 42.760403,28.932383 45.364681,24.287115 
	C49.210087,17.428024 44.350296,7.450871 34.720779,8.041368 
z"/>
<path fill="#F8AC00" opacity="1.000000" stroke="none" 
	d="
M201.000000,39.571537 
	C194.732162,37.018196 188.636871,33.576534 182.161758,31.147196 
	C167.171021,25.522963 154.040039,30.143864 143.124863,40.597664 
	C131.772903,51.469776 118.672913,56.998348 103.141266,56.972321 
	C89.188675,56.948940 77.434410,51.456188 67.454956,41.922710 
	C64.326355,38.933922 61.174656,35.943333 58.351048,32.678925 
	C57.615131,31.828123 57.434250,29.261007 58.088684,28.650110 
	C61.594456,25.377554 65.445145,22.474497 69.588196,19.576632 
	C72.706627,22.768091 75.187843,26.077866 78.206352,28.789570 
	C79.972664,30.376360 82.596214,31.008928 84.834129,32.070763 
	C93.247421,40.303841 108.337029,41.525879 116.926262,34.664341 
	C123.065819,29.759745 129.294128,24.891869 135.902115,20.662727 
	C152.224396,10.216402 169.390991,9.300712 185.992752,19.301228 
	C191.807587,22.803947 195.724792,29.456905 200.754272,34.335659 
	C201.000000,35.714359 201.000000,37.428715 201.000000,39.571537 
z"/>
<path fill="#265E76" opacity="1.000000" stroke="none" 
	d="
M1.000000,21.437500 
	C5.007305,23.505806 8.758616,26.654650 13.078804,28.374516 
	C20.523024,31.338060 28.210102,33.923065 36.022392,35.623356 
	C39.430698,36.365150 43.518234,34.898724 47.081032,33.759029 
	C50.579163,32.640030 52.768257,32.903648 54.985126,36.225521 
	C56.978699,39.212803 60.125496,41.406086 62.567482,44.125706 
	C64.794281,46.605679 64.888992,48.621502 61.163658,50.104824 
	C42.561718,57.511574 23.632143,53.842636 10.325593,39.686954 
	C7.008469,36.158154 4.565989,31.807175 1.360749,27.917046 
	C1.000000,25.958334 1.000000,23.916666 1.000000,21.437500 
z"/>
<path fill="#265E76" opacity="1.000000" stroke="none" 
	d="
M85.031853,31.769810 
	C82.596214,31.008928 79.972664,30.376360 78.206352,28.789570 
	C75.187843,26.077866 72.706627,22.768091 69.860580,19.392323 
	C76.918617,13.613560 84.850929,10.261671 93.910484,8.822533 
	C105.068489,7.050048 115.141914,9.474730 124.888626,14.451613 
	C130.026306,17.075024 130.175613,18.925776 125.716507,22.757332 
	C123.712296,24.479485 121.854675,26.507715 119.572693,27.727701 
	C117.790916,28.680267 115.025925,29.546154 113.438141,28.823647 
	C103.416107,24.263216 94.175911,25.745865 85.031853,31.769810 
z"/>
<path fill="#265E76" opacity="1.000000" stroke="none" 
	d="
M159.185181,35.025276 
	C163.181900,36.275635 166.768814,37.538013 170.855484,38.976273 
	C177.015900,33.881195 183.214294,33.498020 188.000839,38.507488 
	C191.968231,42.659657 192.066971,49.169804 188.224747,53.271488 
	C183.302429,58.526196 176.514709,58.302216 169.618240,52.522758 
	C165.669724,56.468079 161.062851,58.539600 155.508881,56.143070 
	C150.623993,54.035252 148.522369,50.149998 149.026291,44.551208 
	C149.558411,38.639080 153.498871,36.132690 159.185181,35.025276 
z"/>
<path fill="#265E76" opacity="1.000000" stroke="none" 
	d="
M35.134605,8.027896 
	C44.350296,7.450871 49.210087,17.428024 45.364681,24.287115 
	C42.760403,28.932383 38.376202,31.099236 32.372337,29.923853 
	C28.093859,29.086250 25.100554,25.105583 25.001621,20.121861 
	C24.858686,12.921487 26.544130,10.351646 32.392517,8.807713 
	C33.181084,8.599536 33.945293,8.299088 35.134605,8.027896 
z"/>
</svg>